<?xml version="1.0" encoding="iso-8859-1"?>
<!-- Uploaded to: SVG Repo, www.svgrepo.com, Generator: SVG Repo Mixer Tools -->
<svg fill="#000000" height="800px" width="800px" version="1.1" id="Layer_1" xmlns="http://www.w3.org/2000/svg" xmlns:xlink="http://www.w3.org/1999/xlink" 
	 viewBox="0 0 512 512" xml:space="preserve">
<g>
	<g>
		<path d="M437.019,74.983C388.667,26.63,324.38,0.002,256.001,0.002S123.334,26.63,74.983,74.983
			C26.63,123.334,0,187.621,0,256.004c0,68.377,26.629,132.66,74.978,181.012l0.002,0.002l0.002,0.002c0,0,0,0,0.002,0.002
			c48.35,48.35,112.637,74.978,181.016,74.978s132.668-26.629,181.019-74.98C485.371,388.666,512,324.377,512,255.998
			C511.998,187.619,485.37,123.333,437.019,74.983z M464.167,232.728h-70.48c-3.399-20.284-11.222-39.545-23.156-56.624
			c-0.236-0.338-0.486-0.664-0.726-0.999l49.847-49.847C444.495,156.232,459.832,193.258,464.167,232.728z M279.272,47.832
			c39.469,4.336,76.493,19.673,107.467,44.514l-49.828,49.828c-9.436-6.712-19.718-12.268-30.683-16.497
			c-8.747-3.375-17.762-5.806-26.959-7.349L279.272,47.832z M232.727,47.833l-0.003,70.482
			c-21.184,3.57-40.766,11.916-57.587,23.906l-49.873-49.875C156.236,67.503,193.259,52.17,232.727,47.833z M92.349,125.258
			l49.875,49.875c-11.992,16.823-20.34,36.408-23.91,57.595H47.832C52.168,193.258,67.506,156.234,92.349,125.258z M47.83,279.273
			h70.484c3.57,21.186,11.919,40.769,23.909,57.592l-49.876,49.873C67.503,355.764,52.166,318.741,47.83,279.273z M232.727,464.168
			c-39.469-4.336-76.496-19.673-107.47-44.517l49.878-49.875c16.821,11.992,36.406,20.339,57.592,23.909V464.168z M255.999,349.091
			c-51.33,0-93.091-41.76-93.091-93.091c0-51.33,41.757-93.088,93.1-93.088c11.553,0,22.813,2.082,33.471,6.192
			c35.654,13.749,59.611,48.671,59.614,86.895c0,51.33-41.759,93.091-93.088,93.091H255.999z M279.272,464.17v-70.482
			c21.187-3.57,40.772-11.919,57.594-23.909l49.878,49.875C355.768,444.498,318.742,459.834,279.272,464.17z M419.653,386.74
			l-49.875-49.875c11.992-16.821,20.34-36.406,23.91-57.594h70.48C459.832,318.742,444.495,355.766,419.653,386.74z"/>
	</g>
</g>
</svg>